<mxfile host="app.diagrams.net" agent="Mozilla/5.0 (Windows NT 10.0; Win64; x64) AppleWebKit/537.36 (KHTML, like Gecko) Chrome/137.0.0.0 Safari/537.36" version="27.1.4">
  <diagram name="Page-1" id="h1ZsHXZiGlzWEAbDZCUa">
    <mxGraphModel dx="1796" dy="2223" grid="1" gridSize="10" guides="1" tooltips="1" connect="1" arrows="1" fold="1" page="1" pageScale="1" pageWidth="850" pageHeight="1100" math="0" shadow="0">
      <root>
        <mxCell id="0" />
        <mxCell id="1" parent="0" />
        <mxCell id="aT4MI0M4yo9ci6WhgY3A-1" value="&lt;font face=&quot;Times New Roman&quot;&gt;C&lt;span style=&quot;font-size: 14.1667px;&quot;&gt;&lt;sub&gt;math&lt;/sub&gt;&lt;/span&gt;&lt;/font&gt;" style="ellipse;whiteSpace=wrap;html=1;aspect=fixed;fontSize=17;" vertex="1" parent="1">
          <mxGeometry x="150" y="540" width="90" height="90" as="geometry" />
        </mxCell>
        <mxCell id="aT4MI0M4yo9ci6WhgY3A-3" value="&lt;div&gt;&lt;span style=&quot;font-size: 15px;&quot;&gt;Math:&lt;/span&gt;&lt;/div&gt;&lt;div&gt;&lt;span style=&quot;font-size: 15px;&quot;&gt;Enjoy&lt;/span&gt;&lt;/div&gt;" style="rounded=0;whiteSpace=wrap;html=1;" vertex="1" parent="1">
          <mxGeometry x="-5" y="410" width="80" height="40" as="geometry" />
        </mxCell>
        <mxCell id="aT4MI0M4yo9ci6WhgY3A-4" value="&lt;div&gt;&lt;span style=&quot;font-size: 15px;&quot;&gt;Math:&lt;/span&gt;&lt;/div&gt;&lt;div&gt;&lt;span style=&quot;font-size: 15px;&quot;&gt;Logical&lt;/span&gt;&lt;/div&gt;" style="rounded=0;whiteSpace=wrap;html=1;" vertex="1" parent="1">
          <mxGeometry x="155" y="410" width="80" height="40" as="geometry" />
        </mxCell>
        <mxCell id="aT4MI0M4yo9ci6WhgY3A-5" value="&lt;div&gt;&lt;span style=&quot;font-size: 15px;&quot;&gt;Math:&lt;/span&gt;&lt;/div&gt;&lt;div&gt;&lt;span style=&quot;font-size: 15px;&quot;&gt;Useful&lt;/span&gt;&lt;/div&gt;" style="rounded=0;whiteSpace=wrap;html=1;" vertex="1" parent="1">
          <mxGeometry x="75" y="410" width="80" height="40" as="geometry" />
        </mxCell>
        <mxCell id="aT4MI0M4yo9ci6WhgY3A-6" value="&lt;div&gt;&lt;span style=&quot;font-size: 15px;&quot;&gt;Math:&lt;/span&gt;&lt;/div&gt;&lt;div&gt;&lt;span style=&quot;font-size: 15px;&quot;&gt;Job&lt;/span&gt;&lt;/div&gt;" style="rounded=0;whiteSpace=wrap;html=1;" vertex="1" parent="1">
          <mxGeometry x="235" y="410" width="80" height="40" as="geometry" />
        </mxCell>
        <mxCell id="aT4MI0M4yo9ci6WhgY3A-13" value="" style="endArrow=classic;html=1;rounded=0;exitX=0.5;exitY=0;exitDx=0;exitDy=0;entryX=0.5;entryY=1;entryDx=0;entryDy=0;" edge="1" parent="1" source="aT4MI0M4yo9ci6WhgY3A-1" target="aT4MI0M4yo9ci6WhgY3A-3">
          <mxGeometry width="50" height="50" relative="1" as="geometry">
            <mxPoint x="400" y="560" as="sourcePoint" />
            <mxPoint x="450" y="510" as="targetPoint" />
          </mxGeometry>
        </mxCell>
        <mxCell id="aT4MI0M4yo9ci6WhgY3A-14" value="" style="endArrow=classic;html=1;rounded=0;entryX=0.5;entryY=1;entryDx=0;entryDy=0;exitX=0.5;exitY=0;exitDx=0;exitDy=0;" edge="1" parent="1" source="aT4MI0M4yo9ci6WhgY3A-1" target="aT4MI0M4yo9ci6WhgY3A-5">
          <mxGeometry width="50" height="50" relative="1" as="geometry">
            <mxPoint x="310" y="530" as="sourcePoint" />
            <mxPoint x="70" y="460" as="targetPoint" />
          </mxGeometry>
        </mxCell>
        <mxCell id="aT4MI0M4yo9ci6WhgY3A-15" value="" style="endArrow=classic;html=1;rounded=0;exitX=0.5;exitY=0;exitDx=0;exitDy=0;entryX=0.5;entryY=1;entryDx=0;entryDy=0;" edge="1" parent="1" source="aT4MI0M4yo9ci6WhgY3A-1" target="aT4MI0M4yo9ci6WhgY3A-4">
          <mxGeometry width="50" height="50" relative="1" as="geometry">
            <mxPoint x="255" y="560" as="sourcePoint" />
            <mxPoint x="80" y="470" as="targetPoint" />
          </mxGeometry>
        </mxCell>
        <mxCell id="aT4MI0M4yo9ci6WhgY3A-16" value="" style="endArrow=classic;html=1;rounded=0;exitX=0.5;exitY=0;exitDx=0;exitDy=0;entryX=0.5;entryY=1;entryDx=0;entryDy=0;" edge="1" parent="1" source="aT4MI0M4yo9ci6WhgY3A-1" target="aT4MI0M4yo9ci6WhgY3A-6">
          <mxGeometry width="50" height="50" relative="1" as="geometry">
            <mxPoint x="265" y="570" as="sourcePoint" />
            <mxPoint x="90" y="480" as="targetPoint" />
          </mxGeometry>
        </mxCell>
        <mxCell id="aT4MI0M4yo9ci6WhgY3A-23" value="" style="endArrow=classic;html=1;rounded=0;exitX=1;exitY=0.5;exitDx=0;exitDy=0;entryX=0;entryY=0.5;entryDx=0;entryDy=0;" edge="1" parent="1" source="aT4MI0M4yo9ci6WhgY3A-1" target="aT4MI0M4yo9ci6WhgY3A-26">
          <mxGeometry width="50" height="50" relative="1" as="geometry">
            <mxPoint x="400" y="560" as="sourcePoint" />
            <mxPoint x="630" y="585" as="targetPoint" />
          </mxGeometry>
        </mxCell>
        <mxCell id="aT4MI0M4yo9ci6WhgY3A-24" value="&lt;div&gt;&lt;span style=&quot;font-size: 15px;&quot;&gt;Math:&lt;/span&gt;&lt;/div&gt;&lt;div&gt;&lt;span style=&quot;font-size: 15px;&quot;&gt;Adult&lt;/span&gt;&lt;/div&gt;" style="rounded=0;whiteSpace=wrap;html=1;" vertex="1" parent="1">
          <mxGeometry x="315" y="410" width="80" height="40" as="geometry" />
        </mxCell>
        <mxCell id="aT4MI0M4yo9ci6WhgY3A-25" value="" style="endArrow=classic;html=1;rounded=0;exitX=0.5;exitY=0;exitDx=0;exitDy=0;entryX=0.5;entryY=1;entryDx=0;entryDy=0;" edge="1" parent="1" source="aT4MI0M4yo9ci6WhgY3A-1" target="aT4MI0M4yo9ci6WhgY3A-24">
          <mxGeometry width="50" height="50" relative="1" as="geometry">
            <mxPoint x="220" y="590" as="sourcePoint" />
            <mxPoint x="315" y="500" as="targetPoint" />
          </mxGeometry>
        </mxCell>
        <mxCell id="aT4MI0M4yo9ci6WhgY3A-26" value="&lt;font face=&quot;Times New Roman&quot;&gt;C&lt;span style=&quot;font-size: 14.1667px;&quot;&gt;&lt;sub&gt;science&lt;/sub&gt;&lt;/span&gt;&lt;/font&gt;" style="ellipse;whiteSpace=wrap;html=1;aspect=fixed;fontSize=17;" vertex="1" parent="1">
          <mxGeometry x="630" y="540" width="90" height="90" as="geometry" />
        </mxCell>
        <mxCell id="aT4MI0M4yo9ci6WhgY3A-27" value="&lt;span style=&quot;font-size: 15px;&quot;&gt;Science:&amp;nbsp;&lt;/span&gt;&lt;div&gt;&lt;span style=&quot;font-size: 15px;&quot;&gt;Enjoy&lt;/span&gt;&lt;/div&gt;" style="rounded=0;whiteSpace=wrap;html=1;" vertex="1" parent="1">
          <mxGeometry x="475" y="410" width="80" height="40" as="geometry" />
        </mxCell>
        <mxCell id="aT4MI0M4yo9ci6WhgY3A-28" value="&lt;span style=&quot;font-size: 15px;&quot;&gt;Science:&amp;nbsp;&lt;/span&gt;&lt;div&gt;&lt;span style=&quot;font-size: 15px;&quot;&gt;Logical&lt;/span&gt;&lt;/div&gt;" style="rounded=0;whiteSpace=wrap;html=1;" vertex="1" parent="1">
          <mxGeometry x="635" y="410" width="80" height="40" as="geometry" />
        </mxCell>
        <mxCell id="aT4MI0M4yo9ci6WhgY3A-29" value="&lt;span style=&quot;font-size: 15px;&quot;&gt;Science:&amp;nbsp;&lt;/span&gt;&lt;div&gt;&lt;span style=&quot;font-size: 15px;&quot;&gt;Useful&lt;/span&gt;&lt;/div&gt;" style="rounded=0;whiteSpace=wrap;html=1;" vertex="1" parent="1">
          <mxGeometry x="555" y="410" width="80" height="40" as="geometry" />
        </mxCell>
        <mxCell id="aT4MI0M4yo9ci6WhgY3A-30" value="&lt;span style=&quot;font-size: 15px;&quot;&gt;Science:&amp;nbsp;&lt;/span&gt;&lt;div&gt;&lt;span style=&quot;font-size: 15px;&quot;&gt;Job&lt;/span&gt;&lt;/div&gt;" style="rounded=0;whiteSpace=wrap;html=1;" vertex="1" parent="1">
          <mxGeometry x="715" y="410" width="80" height="40" as="geometry" />
        </mxCell>
        <mxCell id="aT4MI0M4yo9ci6WhgY3A-31" value="" style="endArrow=classic;html=1;rounded=0;exitX=0.5;exitY=0;exitDx=0;exitDy=0;entryX=0.5;entryY=1;entryDx=0;entryDy=0;" edge="1" parent="1" source="aT4MI0M4yo9ci6WhgY3A-26" target="aT4MI0M4yo9ci6WhgY3A-27">
          <mxGeometry width="50" height="50" relative="1" as="geometry">
            <mxPoint x="880" y="560" as="sourcePoint" />
            <mxPoint x="930" y="510" as="targetPoint" />
          </mxGeometry>
        </mxCell>
        <mxCell id="aT4MI0M4yo9ci6WhgY3A-32" value="" style="endArrow=classic;html=1;rounded=0;entryX=0.5;entryY=1;entryDx=0;entryDy=0;exitX=0.5;exitY=0;exitDx=0;exitDy=0;" edge="1" parent="1" source="aT4MI0M4yo9ci6WhgY3A-26" target="aT4MI0M4yo9ci6WhgY3A-29">
          <mxGeometry width="50" height="50" relative="1" as="geometry">
            <mxPoint x="790" y="530" as="sourcePoint" />
            <mxPoint x="550" y="460" as="targetPoint" />
          </mxGeometry>
        </mxCell>
        <mxCell id="aT4MI0M4yo9ci6WhgY3A-33" value="" style="endArrow=classic;html=1;rounded=0;exitX=0.5;exitY=0;exitDx=0;exitDy=0;entryX=0.5;entryY=1;entryDx=0;entryDy=0;" edge="1" parent="1" source="aT4MI0M4yo9ci6WhgY3A-26" target="aT4MI0M4yo9ci6WhgY3A-28">
          <mxGeometry width="50" height="50" relative="1" as="geometry">
            <mxPoint x="735" y="560" as="sourcePoint" />
            <mxPoint x="560" y="470" as="targetPoint" />
          </mxGeometry>
        </mxCell>
        <mxCell id="aT4MI0M4yo9ci6WhgY3A-34" value="" style="endArrow=classic;html=1;rounded=0;exitX=0.5;exitY=0;exitDx=0;exitDy=0;entryX=0.5;entryY=1;entryDx=0;entryDy=0;" edge="1" parent="1" source="aT4MI0M4yo9ci6WhgY3A-26" target="aT4MI0M4yo9ci6WhgY3A-30">
          <mxGeometry width="50" height="50" relative="1" as="geometry">
            <mxPoint x="745" y="570" as="sourcePoint" />
            <mxPoint x="570" y="480" as="targetPoint" />
          </mxGeometry>
        </mxCell>
        <mxCell id="aT4MI0M4yo9ci6WhgY3A-35" value="&lt;span style=&quot;font-size: 15px;&quot;&gt;Science:&amp;nbsp;&lt;/span&gt;&lt;div&gt;&lt;span style=&quot;font-size: 15px;&quot;&gt;Adult&lt;/span&gt;&lt;/div&gt;" style="rounded=0;whiteSpace=wrap;html=1;" vertex="1" parent="1">
          <mxGeometry x="795" y="410" width="80" height="40" as="geometry" />
        </mxCell>
        <mxCell id="aT4MI0M4yo9ci6WhgY3A-36" value="" style="endArrow=classic;html=1;rounded=0;exitX=0.5;exitY=0;exitDx=0;exitDy=0;entryX=0.5;entryY=1;entryDx=0;entryDy=0;" edge="1" parent="1" source="aT4MI0M4yo9ci6WhgY3A-26" target="aT4MI0M4yo9ci6WhgY3A-35">
          <mxGeometry width="50" height="50" relative="1" as="geometry">
            <mxPoint x="700" y="590" as="sourcePoint" />
            <mxPoint x="795" y="500" as="targetPoint" />
          </mxGeometry>
        </mxCell>
      </root>
    </mxGraphModel>
  </diagram>
</mxfile>
